<?xml version="1.0" encoding="utf-8"?>
<!-- Generator: Adobe Illustrator 26.5.0, SVG Export Plug-In . SVG Version: 6.00 Build 0)  -->
<svg version="1.1" id="Layer_1" xmlns="http://www.w3.org/2000/svg" xmlns:xlink="http://www.w3.org/1999/xlink" x="0px" y="0px"
	 viewBox="0 0 700 700" style="enable-background:new 0 0 700 700;" xml:space="preserve">
<g>
	<path d="M606.2,638.5h1.9V385.6c0-38.6-31.6-70.2-70.2-70.2H411.5V210.1c0-21.1-15.5-37.9-35.1-41.4v-17.6c4.9-1.4,9.8-4.2,14-7
		c10.5-7.7,18.3-19.7,19.7-33c1.4-13.3-1.4-26.7-9.8-37.2l-27.4-35.1c-5.6-7-16.9-7-22.5,0L323,73.8c-8.4,10.5-11.9,23.9-9.8,37.2
		s9.1,24.6,19.7,33c4.2,2.8,9.1,5.6,14,7v17.6c-19.7,3.5-35.1,20.4-35.1,41.4v105.3h-125c-38.6,0-70.2,31.6-70.2,70.2v252.8h1.1
		c-7.3,0-13.8,5.4-14.5,12.7c-0.8,8.3,5.8,15.4,14,15.4h488.7c7.3,0,13.7-5.4,14.4-12.6C621,645.6,614.4,638.5,606.2,638.5
		L606.2,638.5z M342,107.5c-0.7-5.6,0.7-11.2,4.2-15.5L362.3,71l16.2,21.1c3.5,4.2,4.9,9.8,4.2,15.5c-0.7,5.6-3.5,10.5-8.4,14
		c-7,4.9-16.9,4.9-23.9,0C345.5,118.1,342.7,113.1,342,107.5L342,107.5z M341.3,210.1c0-7.7,6.3-14,14-14h14c7.7,0,14,6.3,14,14
		v105.3h-42.1L341.3,210.1z M580.1,638.5H144.6V489.6c9.8,4.2,21.1,7,32.3,7c21.1,0,41.4-8.4,56.2-23.2c9.8-9.8,22.5-14.8,36.5-14.8
		c14,0,26.7,5.6,36.5,14.8c14.8,14.8,35.1,23.2,56.2,23.2c21.1,0,41.4-8.4,56.2-23.2c9.8-9.8,22.5-14.8,36.5-14.8
		s26.7,5.6,36.5,14.8c23.9,23.9,59.7,29.5,88.5,16.2L580.1,638.5z M580.1,456.6c-20.4,16.2-49.9,15.5-68.8-3.5
		c-14.8-14.8-35.1-23.2-56.2-23.2c-21.1,0-41.4,8.4-56.2,23.2c-9.8,9.8-22.5,14.8-36.5,14.8s-26.7-5.6-36.5-14.8
		c-14.8-14.8-35.1-23.2-56.2-23.2s-41.4,8.4-56.2,23.2c-9.8,9.8-22.5,14.8-36.5,14.8c-11.9,0-23.2-4.2-32.3-11.2l0-70.9
		c0-23.2,19-42.1,42.1-42.1h351.2c23.2,0,42.1,19,42.1,42.1L580.1,456.6z"/>
</g>
</svg>
